inDegrees=no
num_controls=7
num_derivatives=13
num_iterations=133
num_multipliers=7
num_parameters=0
num_slacks=7
num_states=26
objective=0.446829
objective_accelerations=0.055926
objective_balance=0.003135
objective_effort=0.022640
objective_height=0.359655
objective_ligament=0.005473
solver_duration=1780.856416
status=Solve_Succeeded
success=true
DataType=double
version=3
OpenSimVersion=4.5
endheader
time	/jointset/ground_pelvis/pelvis_tilt/value	/jointset/ground_pelvis/pelvis_tx/value	/jointset/ground_pelvis/pelvis_ty/value	/jointset/hip_l/hip_flexion_l/value	/jointset/hip_l/hip_adduction_l/value	/jointset/hip_l/hip_rotation_l/value	/jointset/back/lumbar_extension/value	/jointset/patellofemoral_l/patellar_flexion_l/value	/jointset/knee_l/knee_flexion_l/value	/jointset/knee_l/knee_adduction_l/value	/jointset/knee_l/knee_rotation_l/value	/jointset/ankle_l/ankle_angle_l/value	/jointset/subtalar_l/subtalar_angle_l/value	/jointset/ground_pelvis/pelvis_tilt/speed	/jointset/ground_pelvis/pelvis_tx/speed	/jointset/ground_pelvis/pelvis_ty/speed	/jointset/hip_l/hip_flexion_l/speed	/jointset/hip_l/hip_adduction_l/speed	/jointset/hip_l/hip_rotation_l/speed	/jointset/back/lumbar_extension/speed	/jointset/patellofemoral_l/patellar_flexion_l/speed	/jointset/knee_l/knee_flexion_l/speed	/jointset/knee_l/knee_adduction_l/speed	/jointset/knee_l/knee_rotation_l/speed	/jointset/ankle_l/ankle_angle_l/speed	/jointset/subtalar_l/subtalar_angle_l/speed	/forceset/tau_hip_flexion_l	/forceset/tau_hip_adduction_l	/forceset/tau_hip_rotation_l	/forceset/tau_knee_flexion_l	/forceset/tau_ankle_angle_l	/forceset/tau_subtalar_angle_l	/forceset/tau_lumbar_extension	lambda_cid13_p0	lambda_cid13_p1	lambda_cid13_p2	lambda_cid13_p3	lambda_cid13_p4	lambda_cid13_p5	lambda_cid14_p0	/jointset/ground_pelvis/pelvis_tilt/accel	/jointset/ground_pelvis/pelvis_tx/accel	/jointset/ground_pelvis/pelvis_ty/accel	/jointset/hip_l/hip_flexion_l/accel	/jointset/hip_l/hip_adduction_l/accel	/jointset/hip_l/hip_rotation_l/accel	/jointset/back/lumbar_extension/accel	/jointset/patellofemoral_l/patellar_flexion_l/accel	/jointset/knee_l/knee_flexion_l/accel	/jointset/knee_l/knee_adduction_l/accel	/jointset/knee_l/knee_rotation_l/accel	/jointset/ankle_l/ankle_angle_l/accel	/jointset/subtalar_l/subtalar_angle_l/accel	gamma_cid13_p0	gamma_cid13_p1	gamma_cid13_p2	gamma_cid13_p3	gamma_cid13_p4	gamma_cid13_p5	gamma_cid14_p0
1	-0.4995091482742585	-0.06026997502673274	0.5838321418363768	1.754247568210336	-0.4702816622695528	0.00600956629262357	-0.2617974893915844	1.399137016818671	1.399137016818413	-0.07074567572985742	-0.1745314063155929	0.2685007871635132	0.01564462412107478	-0.01669254849307069	0.009750215245894164	0.001946915080276248	-0.0007842549007502819	-0.002867080037331204	0.005108929284062066	-2.01204113982481e-05	0.001055237353068282	0.001055237353068305	-0.007758067788204033	1.527724549406333e-05	0.01808077526626663	0.007405583674668209	-0.3061357792919985	0.008439765184631983	0.0004365192096993415	-0.3227405186919813	0.01260260545153296	0.03632308653986582	0.2672355516413373	-35.31607347332472	-10.90164084706733	2.898566533467939	9.020646204299235	-639.5769506131982	-62.20862520532233	-1.093668912987329	1.372325810088017	0.1874648158941211	1.922762350475351	-6.509661508715041	-0.009692687097354855	-2.35231458571289	-0.01761856213052959	-5.364574678219342	-5.364574678219465	-0.5740782635454654	-0.02574721583231806	-0.9091062111357971	-0.5460415910090989	3.590728570400933e-09	1.617713447714324e-08	-1.189475006270113e-08	3.095788758495698e-09	-1.8513665985972e-09	2.323063336852219e-08	1.814649049981899e-09
1.01	-0.4996082940836421	-0.06016313452449978	0.5839475996082948	1.753915459957458	-0.4703098775579996	0.005941912758712697	-0.2617976472422912	1.398879532732197	1.398879532732045	-0.07084929424774322	-0.1745312525171801	0.2686363405679509	0.01569279225860541	-0.003135311812072271	0.01162086760160125	0.02114042312505242	-0.06562950731830602	-0.002774082490624363	-0.01863716410931975	-1.101673294350258e-05	-0.05254746551344203	-0.05254746551344239	-0.01296504672625516	1.445784086977094e-05	0.009025821602350461	0.002227789643785918	-0.3060406086498324	0.00850093202947445	0.000422549395381986	-0.322575983112009	0.01249883991527393	0.03635095309979521	0.267165846631627	-35.3351479904763	-10.9170229671407	2.908579920793936	8.93944968880732	-639.4207018134036	-62.22624055074009	-1.098426098873319	1.347616653126345	0.1873134481890717	1.917010266941326	-6.470775266776923	0.01907885669684446	-2.385392160470243	0.01023978239839906	-5.357427658143364	-5.357427658143338	-0.4939232578023357	0.01260516852531006	-0.9043024157288326	-0.5036907358859735	-4.948865124499752e-09	5.406532871504463e-09	2.923617113100767e-08	3.212037714233171e-09	-1.159060410309049e-08	6.786095484662332e-08	-1.019148742920604e-08
1.02	-0.4995718287150118	-0.06003749789815371	0.5842548655077531	1.752935135548703	-0.4703371062947509	0.005636871202003783	-0.2617977010663004	1.398086159703602	1.398086159703557	-0.07100496566478329	-0.1745311360185514	0.2686812219414074	0.01568917397047557	0.01042968710975012	0.01350944006851137	0.04030854058833072	-0.1304274860759054	-0.002669769698231459	-0.04236867527547829	6.849281081386295e-07	-0.1061225510710121	-0.106122551071012	-0.0181686476190024	7.817288357306772e-06	-5.363092993794098e-05	-0.002951701457423505	-0.3059454380076665	0.008562098874315551	0.000408579581063082	-0.3224114475320367	0.01239507437901445	0.0363788196597225	0.2670961416219167	-35.36109441031125	-10.93058394527155	2.917597122881729	8.887265602223632	-639.358527164016	-62.22276381579913	-1.112485814314065	1.373878258252812	0.1910488381347297	1.917684234175776	-6.500206776723772	-0.007429637960143734	-2.349398140268233	-0.01709896561114551	-5.359051216431286	-5.359051216431242	-0.5734026544846896	-0.02691144540995465	-0.9140059848102423	-0.5463810050745262	-1.333391147912605e-08	-4.917615685637691e-09	7.062265212035027e-08	3.486221809414491e-09	-2.119696202799432e-08	1.116630720346354e-07	-2.201778754175817e-08
1.03	-0.4993996352813564	-0.05989285606602866	0.584753604289163	1.751307222129081	-0.4703631857340357	0.005094668804345903	-0.2617976463049452	1.396757280245512	1.396757280245626	-0.07121263587613261	-0.1745311243509535	0.2686351210130303	0.01563378486764118	0.02401372566666483	0.01542483191726733	0.0594268814994229	-0.1951314300106786	-0.002538179369385983	-0.06606075332810561	9.075632793913506e-06	-0.1596382446132149	-0.1596382446132142	-0.02336158702424193	-5.3867157500232e-06	-0.00917684068065046	-0.008121502990015827	-0.3055501021342441	0.008611211050664874	0.0003636278187859209	-0.3220829299200648	0.01238310800407576	0.03650084330008608	0.2668144535892264	-35.33412401621906	-11.00601517936968	2.9498566477341	8.752740015448067	-638.9662232833116	-62.31140533179073	-1.136061769943736	1.351372157161298	0.1926709464374883	1.907052671834027	-6.451927019702462	0.02463384780698911	-2.377476342711565	0.00962933199802592	-5.345557192920893	-5.345557192920854	-0.4916818709635785	0.0115175149893963	-0.9130222434444752	-0.5015980292831913	-2.171738082007607e-08	-1.523720859942784e-08	1.120117408627095e-07	3.762017487651362e-09	-3.08019640388207e-08	1.55456738158463e-07	-3.384225258934463e-08
